<?xml version="1.0" ?><svg xmlns="http://www.w3.org/2000/svg" xmlns:xlink="http://www.w3.org/1999/xlink" version="1.1" viewBox="0 0 251.032 270.672" style="enable-background:new 0 0 251.032 270.672;" xml:space="preserve"><g id="Truck_x2C__vehicle_x2C__construction_vehicle_x2C__camion_x2C_lorry"><g><path d="M242.561,148.698c-6.338-5.31-13.83-8.366-21.437-10.857V72.187c-0.434-5.291-7.724-3.449-11.249-3.363    c0.467-5.279,1.319-15.978,1.663-27.133c0.907-29.416-2.37-36.561-4.915-39.375c-7.845-6.726-13.461,2.499-13.984,11.044    C158.083,8.455,77.014,7.821,63.43,13.992c-0.711-7.737-6.207-15.695-13.232-9.534c-2.5,2.748-5.726,9.918-4.875,40.338    c0.318,11.384,1.12,22.34,1.573,27.9c-4.118,0.35-11.337-1.673-11.961,3.767c0.002,0.02,0.225,63.369,0.246,63.398    c-14.625,3.15-29.201,2.367-33.763,22.079c-3.024,12.804-0.817,22.223,2.938,27.903c-9.42,13.501,4.28,43.775,21.89,44.607    c0.504,1.856-2.487,12.765,3.243,12.628c5.298,0.359,3.147-9.925,3.722-11.475c1.86,0.234,15.934,1.668,19.913,1.909    c0.232,1.982,0.377,7.392,0.35,7.996c-0.218,4.533,6.906,4.78,6.996,0.234c0.021-0.651-0.077-5.935-0.275-7.861    c15.411,0.69,109.273,0.538,125.898-0.321c-0.104,3.057-0.263,6.047-0.251,9.358c-0.024,4.542,7.107,4.477,7-0.063    c-0.014-2.357,0.24-8.737,0.268-9.722c1.892-0.137,15.334-1.392,20.054-2.124c0.78,3.448-1.735,10.318,3.633,10.678    c5.594-0.523,3.095-8.332,3.282-12.003c20.703-4.67,29.294-17.382,27.454-42.621C249.714,181.478,256.3,160.936,242.561,148.698z     M201.602,7.216c0.881,1.226,3.691,7.212,2.972,33.179c-0.378,13.618-1.565,26.794-1.895,30.26    c-0.005,0.002-0.011,0.004-0.016,0.006c0.085-2.23-0.339-6.447-1.113-13.86c-0.95-9.105-2.253-21.576-2.387-31.916    C198.985,11.166,200.978,7.897,201.602,7.216z M193.915,92.451c0.175-5.235,1.601-8.491,5.244-11.679    c3.761-3.291,9.194-5.163,14.965-5.239v60.123c-7.725-2.348-20.192-8.465-20.192-8.465S193.914,92.481,193.915,92.451z     M193.61,76.37c-0.065,0.063-0.125,0.129-0.188,0.193c0-0.095,0-0.194,0-0.288C193.485,76.305,193.545,76.342,193.61,76.37z     M63.687,39.544c0.24-3.778,0.403-7.362,0.465-10.708c0.29-3.669,0.721-6.598,1.352-8.211c3.115-1.765,20.672-4.216,58.108-4.216    c0.562,0,1.134,0,1.706,0.001c28.936,0.057,56.146,1.583,65.047,3.601c0.857,3.028,1.305,11.668,1.34,25.78    c-1.335-6.661-3.667-10.589-7.706-13.955c-17.372-14.213-61.039-11.367-69.617-10.652c-0.048,0.004-0.096,0.009-0.144,0.015    c-2.128,0.266-4.215,0.505-6.258,0.739c-18.675,2.138-34.803,3.985-43.954,22.287c-0.043,0.087-0.083,0.175-0.119,0.266    c-0.098,0.245-0.19,0.518-0.279,0.805C63.634,43.358,63.652,41.428,63.687,39.544z M81.854,82.206    c13.188-7.535,36.656-6.549,53.791-5.83c2.253,0.095,4.42,0.186,6.472,0.255c31.015,1.051,44.415,7.581,44.808,21.831    c0.083,3.025,0.065,13.593,0.038,21.42c-6.388-7.598-15.12-17.85-29.168-20.922c-10.101-2.21-44.144-1.951-56.707-0.555    c-0.042,0.004-0.084,0.01-0.126,0.016c-18.417,2.729-26.122,10.625-32.642,18.78c0.081-3.509,0.11-6.595,0.133-9.293    C68.606,90.115,68.609,89.775,81.854,82.206z M70.36,47.21c7.467-14.775,20.458-16.262,38.416-18.318    c2.043-0.234,4.131-0.473,6.259-0.739c18.049-1.498,51.872-1.258,64.507,9.081c5.991,4.993,6.893,12.283,6.881,44.044    c-11.445-10.529-33.081-11.269-44.071-11.642c-2.033-0.069-4.181-0.159-6.414-0.253c-18.989-0.798-42.619-1.791-57.558,6.746    c-3.87,2.212-6.84,4.09-9.132,5.925C69.048,74.378,68.49,52.266,70.36,47.21z M54.987,9.707c0.754,1.186,2.355,5.285,2.159,18.593    c-0.004,0.269-0.011,0.545-0.017,0.817c-0.225,2.977-0.367,6.387-0.44,10.182c-0.478,7.634-1.227,15.379-1.83,21.587    c-0.498,5.137-0.843,8.764-0.986,11.254c-0.456-5.588-1.274-16.775-1.574-28.283C51.638,18.455,53.962,11.515,54.987,9.707z     M58.851,83.766c2.393,2.307,3.403,5.647,3.092,10.213c-0.022,0.333-0.581,24.456-0.921,31.8c-0.006,0.126,0.013,0.246,0.02,0.369    c-4.386,4.827-9.788,9.088-18.877,11.934l-0.219-58.396C49.753,79.293,55.686,80.712,58.851,83.766z M197.46,229.733    c-25.39,2.672-126.151,3.125-153.662,0.003c-1.406-0.16-2.773-0.305-4.104-0.446c-3.378-0.359-6.418-0.683-9.167-1.132    c-0.016-0.003-0.033-0.005-0.049-0.008c-9.607-1.575-15.637-4.696-19.977-16.27c-3.51-9.359-1.838-15.344-0.706-17.534    c49.297,6.751,93.688,9.679,135.729,8.943c31.655-0.553,62.018-3.183,95.215-8.26C241.671,222.871,227.873,227.087,197.46,229.733    z M241.314,187.004c-0.083,0.325-87.542,11.926-153.877,8.043c-0.114-0.704-0.798-4.825-1.021-6.227l9.104-0.038    c1.933-0.008,3.493-1.581,3.485-3.515c-0.008-1.928-1.573-3.485-3.5-3.485c-0.005,0-0.01,0-0.015,0c0,0-13.451,0.252-13.62,0.276    c-1.913,0.276-3.239,2.052-2.963,3.965c0.43,2.968,1.324,8.347,1.361,8.573c-21.063-1.408-43.93-3.696-68.899-7.102    c-4.855-5.103-5.125-15.539-3.14-23.945c2.893-12.249,9.523-13.42,21.562-15.546c3.978-0.702,8.485-1.498,13.267-2.864    c15.92-4.643,22.748-13.377,28.772-21.083c6.749-8.632,12.58-16.089,30.093-18.7c11.848-1.305,45.344-1.533,54.374,0.443    c11.862,2.595,19.427,11.594,25.504,18.825c2.319,2.759,4.322,5.142,6.328,6.881c6.332,5.492,14.965,8.115,24.104,10.892    c9.187,2.792,18.685,5.679,25.831,11.665C247.693,162.128,243.222,179.561,241.314,187.004z"/><path d="M34.277,182.582l28.087,2.64c0.111,0.011,0.222,0.016,0.331,0.016c1.773,0,3.293-1.342,3.478-3.142l2.443-23.758    c0.104-1.013-0.237-2.021-0.937-2.761c-0.699-0.74-1.665-1.157-2.702-1.094l-29.31,1.319c-1.787,0.08-3.226,1.495-3.336,3.28    l-1.221,19.799C30.995,180.768,32.397,182.406,34.277,182.582z M39.125,162.655l22.113-0.996l-1.674,16.27l-21.258-1.998    L39.125,162.655z"/><path d="M141.318,127.858c0.005,0,0.01,0,0.016,0l0.317,0c4.428,0,7.912,0.269,10.967,0.845c0.22,0.042,0.438,0.061,0.653,0.061    c1.649,0,3.118-1.171,3.436-2.851c0.358-1.899-0.891-3.73-2.79-4.088c-3.493-0.66-7.391-0.967-12.266-0.967l-0.349,0    c-1.933,0.008-3.493,1.583-3.484,3.515C137.826,126.301,139.392,127.858,141.318,127.858z"/><path d="M174.713,171.364c-0.026-0.001-0.053-0.001-0.08-0.001c-1.896,0-3.454,1.516-3.497,3.422    c-0.065,2.917-0.17,5.985-0.31,9.146c-0.448-1.417-1.758-2.45-3.322-2.45c-0.005,0-0.01,0-0.015,0l-12,0.05    c-1.933,0.008-3.493,1.581-3.485,3.515c0.008,1.928,1.573,3.485,3.5,3.485c0.005,0,0.01,0,0.015,0l12-0.05    c1.432-0.006,2.656-0.873,3.193-2.108c-0.005,0.106-0.01,0.21-0.015,0.316c-0.096,1.931,1.391,3.574,3.321,3.671    c0.06,0.003,0.119,0.004,0.178,0.004c1.853,0,3.399-1.454,3.493-3.325c0.21-4.203,0.359-8.273,0.445-12.098    C178.177,173.008,176.646,171.407,174.713,171.364z"/><path d="M117.271,128.568c0.599,0.01,1.201,0.015,1.81,0.015c3.42,0,6.875-0.15,10.409-0.317c1.931-0.091,3.422-1.73,3.331-3.661    c-0.092-1.931-1.741-3.41-3.661-3.331c-4.047,0.191-7.982,0.359-11.771,0.295c-0.02-0.001-0.04-0.001-0.06-0.001    c-1.905,0-3.467,1.528-3.498,3.441C113.797,126.943,115.338,128.536,117.271,128.568z"/><path d="M173.648,147.397c-1.192,0.125-2.178,0.837-2.709,1.816c-0.639-0.769-1.589-1.271-2.667-1.276l-12-0.052    c-0.005,0-0.01,0-0.015,0c-1.926,0-3.491,1.557-3.5,3.485c-0.008,1.933,1.552,3.506,3.485,3.515l12,0.052c0.005,0,0.01,0,0.015,0    c0.988,0,1.877-0.414,2.514-1.074c0.206,2.666,0.343,5.7,0.407,9.06c0.012,0.658,0.215,1.263,0.541,1.783    c-0.548-0.357-1.199-0.57-1.901-0.571c-3.621-0.006-7.685-0.017-12.018-0.031c-0.004,0-0.008,0-0.012,0    c-1.928,0-3.493,1.56-3.5,3.488c-0.007,1.933,1.556,3.505,3.488,3.512c4.337,0.015,8.404,0.025,12.029,0.031    c0.002,0,0.004,0,0.006,0c1.931,0,3.497-1.563,3.5-3.494c0.001-0.681-0.2-1.311-0.536-1.849c0.548,0.356,1.2,0.565,1.9,0.565    c0.022,0,0.045,0,0.067-0.001c1.933-0.036,3.47-1.633,3.433-3.565c-0.089-4.717-0.318-8.848-0.681-12.28    C177.292,148.588,175.58,147.19,173.648,147.397z"/><path d="M94.264,133.193c0.671,0,1.35-0.193,1.948-0.595c2.727-1.831,6.001-3.074,9.73-3.696c1.907-0.318,3.195-2.121,2.877-4.028    c-0.318-1.906-2.118-3.201-4.027-2.877c-4.722,0.787-8.921,2.398-12.482,4.789c-1.604,1.078-2.032,3.252-0.955,4.857    C92.03,132.65,93.137,133.193,94.264,133.193z"/><path d="M81.029,177.096c0.087,0,0.175-0.003,0.263-0.01c1.928-0.143,3.374-1.821,3.231-3.749    c-0.072-0.972-0.128-1.927-0.176-2.872c0.393,0.156,0.817,0.251,1.265,0.254l12.054,0.077c0.007,0,0.015,0,0.021,0    c1.923,0,3.488-1.553,3.5-3.479c0.012-1.933-1.545-3.51-3.479-3.521l-12.05-0.077c-0.516-0.013-1.003,0.097-1.446,0.293    c0.008-0.762,0.013-1.524,0.04-2.286c0.069-1.932-1.44-3.555-3.372-3.624c-1.96-0.04-3.555,1.441-3.624,3.372    c-0.041,1.156-0.061,2.315-0.061,3.471c-0.001,2.805,0.115,5.803,0.346,8.909C77.679,175.695,79.214,177.096,81.029,177.096z"/><path d="M162.193,132.562c2.612,1.939,4.557,4.545,5.943,7.967c0.552,1.361,1.862,2.187,3.245,2.187    c0.438,0,0.883-0.083,1.313-0.257c1.792-0.727,2.655-2.768,1.93-4.559c-1.857-4.583-4.637-8.27-8.26-10.959    c-1.553-1.151-3.744-0.827-4.896,0.725C160.316,129.218,160.64,131.41,162.193,132.562z"/><path d="M81.41,153.113c0.005,0.001,0.011,0.001,0.016,0.002c0.633,0.876,1.653,1.454,2.817,1.459l12,0.052    c0.005,0,0.01,0,0.015,0c1.926,0,3.491-1.557,3.5-3.485c0.009-1.933-1.552-3.506-3.485-3.515l-9.993-0.043    c0.787-2.761,1.798-5.236,3.02-7.385c0.955-1.68,0.367-3.816-1.313-4.772c-1.678-0.954-3.815-0.368-4.772,1.313    c-1.979,3.482-3.489,7.592-4.486,12.215C78.319,150.843,79.521,152.705,81.41,153.113z"/><path d="M132.242,154.781l11.999,0.053c0.006,0,0.011,0,0.016,0c1.926,0,3.491-1.557,3.5-3.484    c0.009-1.934-1.552-3.507-3.484-3.516l-11.999-0.053c-0.006,0-0.011,0-0.016,0c-1.926,0-3.491,1.557-3.5,3.484    C128.749,153.199,130.31,154.772,132.242,154.781z"/><path d="M108.243,154.677l12,0.052c0.005,0,0.01,0,0.015,0c1.926,0,3.491-1.557,3.5-3.485c0.009-1.933-1.552-3.506-3.485-3.515    l-12-0.052c-0.005,0-0.01,0-0.015,0c-1.926,0-3.491,1.557-3.5,3.485C104.75,153.095,106.31,154.668,108.243,154.677z"/><path d="M145.781,164.057c-3.955-0.017-7.995-0.036-12.017-0.057c-0.006,0-0.012,0-0.018,0c-1.925,0-3.49,1.556-3.5,3.482    c-0.01,1.933,1.549,3.508,3.482,3.518c4.023,0.021,8.065,0.04,12.022,0.057c0.005,0,0.01,0,0.015,0c1.927,0,3.492-1.558,3.5-3.485    C149.275,165.639,147.714,164.065,145.781,164.057z"/><path d="M121.752,163.938l-12.02-0.068c-0.007,0-0.014,0-0.021,0c-1.924,0-3.488,1.554-3.5,3.479    c-0.012,1.933,1.546,3.509,3.479,3.521l12.023,0.068c0.006,0,0.013,0,0.019,0c1.925,0,3.489-1.555,3.5-3.482    C125.244,165.524,123.686,163.949,121.752,163.938z"/><path d="M143.504,181.581c-0.005,0-0.01,0-0.015,0l-11.999,0.05c-1.933,0.008-3.493,1.582-3.485,3.515    c0.008,1.928,1.573,3.485,3.5,3.485c0.005,0,0.01,0,0.015,0l11.999-0.05c1.933-0.008,3.493-1.582,3.485-3.515    C146.996,183.139,145.431,181.581,143.504,181.581z"/><path d="M119.505,181.682c-0.005,0-0.01,0-0.015,0l-12,0.05c-1.933,0.008-3.493,1.582-3.485,3.515    c0.008,1.928,1.573,3.485,3.5,3.485c0.005,0,0.01,0,0.015,0l12-0.05c1.933-0.008,3.493-1.582,3.485-3.515    C122.997,183.24,121.432,181.682,119.505,181.682z"/><path d="M129.194,59.849c0.68,0,1.367-0.198,1.971-0.61l29.984-20.475c1.597-1.09,2.007-3.268,0.917-4.864    c-1.091-1.597-3.27-2.007-4.864-0.917l-29.984,20.475c-1.597,1.09-2.007,3.268-0.917,4.864    C126.979,59.315,128.077,59.849,129.194,59.849z"/><path d="M155.657,45.81l-13.93,9.788c-1.581,1.111-1.962,3.295-0.851,4.876c0.681,0.97,1.765,1.488,2.866,1.488    c0.695,0,1.397-0.207,2.01-0.637l13.93-9.788c1.581-1.111,1.962-3.294,0.851-4.876C159.423,45.08,157.24,44.7,155.657,45.81z"/><path d="M56.118,254.117c-1.817-0.663-3.825,0.271-4.488,2.088c-1.294,3.547-3.181,5.919-5.607,7.052    c-1.752,0.818-2.509,2.9-1.691,4.652c0.595,1.272,1.856,2.021,3.174,2.021c0.496,0,1-0.107,1.479-0.329    c4.167-1.945,7.27-5.645,9.223-10.995C58.868,256.788,57.934,254.78,56.118,254.117z"/><path d="M38.037,262.926c-1.946-1.349-3.348-4.071-4.165-8.095c-0.385-1.894-2.233-3.117-4.127-2.732    c-1.894,0.385-3.117,2.232-2.732,4.127c1.188,5.853,3.558,10.043,7.04,12.454c0.607,0.422,1.302,0.623,1.989,0.623    c1.109,0,2.201-0.526,2.88-1.508C40.023,266.206,39.627,264.026,38.037,262.926z"/><path d="M216.04,250.672c-1.876-0.494-3.784,0.619-4.28,2.487c-1.057,3.993-2.621,7.056-4.521,8.857    c-1.403,1.33-1.463,3.545-0.134,4.948c0.688,0.727,1.614,1.093,2.542,1.093c0.863,0,1.729-0.318,2.406-0.959    c2.886-2.734,5.063-6.821,6.475-12.145C219.022,253.083,217.908,251.167,216.04,250.672z"/><path d="M199.389,263.788c-1.604-0.424-3.896-1.512-5.295-6.051c-0.568-1.847-2.528-2.883-4.375-2.315    c-1.848,0.568-2.884,2.527-2.314,4.375c1.794,5.825,5.225,9.444,10.197,10.758c0.299,0.079,0.6,0.117,0.896,0.117    c1.551,0,2.968-1.038,3.382-2.607C202.373,266.197,201.258,264.281,199.389,263.788z"/><path d="M193.22,185.238c0.109,0,0.22-0.005,0.331-0.016l28.088-2.64c1.881-0.177,3.282-1.815,3.166-3.7l-1.221-19.799    c-0.11-1.785-1.549-3.2-3.336-3.28l-29.31-1.319c-1.03-0.063-2.003,0.354-2.702,1.094c-0.699,0.74-1.041,1.748-0.937,2.761    l2.442,23.758C189.927,183.896,191.445,185.238,193.22,185.238z M216.791,162.655l0.818,13.275l-21.259,1.998l-1.673-16.27    L216.791,162.655z"/></g></g><g id="Capa_1"/></svg>